<svg xmlns="http://www.w3.org/2000/svg" font-family="verdana, sans-serif" font-size="12" viewBox="56 39 363 196"><style>text{cursor:default}.b{font-weight:bold}g&gt;rect:first-child{fill:#f4f4f4}</style><path stroke="#323232" stroke-width="2" fill="none" d="M 215 100 C 245 100 246 198 276 198"></path><g><rect x="76" y="59" width="139" height="151"></rect><g><text x="114.5" y="77">Restaurant</text></g><g><text class="b" x="86" y="103">id</text><rect x="205" y="88" width="4" height="23" fill="#eeeeaa"></rect></g><g><text x="86" y="126">name</text><rect x="205" y="111" width="4" height="23" fill="#eeeeaa"></rect></g><g><text x="86" y="149">city</text><rect x="205" y="134" width="4" height="23" fill="#eeeeaa"></rect></g><g><text x="86" y="173">cuisine_style</text><rect x="205" y="158" width="4" height="23" fill="#eeeeaa"></rect></g><g><text x="86" y="196">rating</text><rect x="205" y="181" width="4" height="23" fill="#eeeeaa"></rect></g></g><g><rect x="276" y="64" width="123" height="151"></rect><g><text x="315.8" y="82">Reviews</text></g><g><text class="b" x="286" y="108">id</text><rect x="389" y="93" width="4" height="23" fill="#eeeeaa"></rect></g><g><text x="286" y="131">date</text><rect x="389" y="116" width="4" height="23" fill="#eeeeaa"></rect></g><g><text x="286" y="154">content</text><rect x="389" y="139" width="4" height="23" fill="#eeeeaa"></rect></g><g><text x="286" y="178">rating</text><rect x="389" y="163" width="4" height="23" fill="#eeeeaa"></rect></g><g><text x="286" y="201">restaurant_id</text><rect x="389" y="186" width="4" height="23" fill="#eeeeaa"></rect></g></g></svg>